<?xml version="1.0" encoding="UTF-8" standalone="no"?>
<svg
   xmlns:dc="http://purl.org/dc/elements/1.1/"
   xmlns:cc="http://creativecommons.org/ns#"
   xmlns:rdf="http://www.w3.org/1999/02/22-rdf-syntax-ns#"
   xmlns:svg="http://www.w3.org/2000/svg"
   xmlns="http://www.w3.org/2000/svg"
   viewBox="0 0 192 192"
   height="192"
   width="192"
   id="svg2"
   version="1.1">
  <metadata
     id="metadata8">
    <rdf:RDF>
      <cc:Work
         rdf:about="">
        <dc:format>image/svg+xml</dc:format>
        <dc:type
           rdf:resource="http://purl.org/dc/dcmitype/StillImage" />
        <dc:title></dc:title>
      </cc:Work>
    </rdf:RDF>
  </metadata>
  <defs
     id="defs6" />
  <g
     id="g3695">
    <path
       id="path3686"
       d="M 12,150.5 V 132 H 20.5 29 V 118.5 105 H 61 93 V 96.5 88 H 70.5 48 V 56 24 H 97.5 147 V 56 88 H 124.5 102 v 8.5 8.5 h 31 31 v 13.5 13.5 h 9 9 V 150.5 169 H 164.5 147 V 150.5 132 h 4 4 V 123.5 115 H 137.5 120 v 8.5 8.5 h 8.5 8.5 V 150.5 169 H 119.5 102 V 150.5 132 h 4 4 V 123.5 115 H 96.5 83 v 8.5 8.5 h 5 5 V 150.5 169 H 74.5 56 V 150.5 132 H 65.5 75 V 123.5 115 H 57 39 v 8.5 8.5 H 43.5 48 V 150.5 169 H 30 12 Z"
       style="fill:#b9bcb5" />
    <path
       id="path3684"
       d="M 21,150.5 V 142 h 9 9 v 8.5 8.5 h -9 -9 z m 45,0 V 142 h 8.5 8.5 v 8.5 8.5 H 74.5 66 Z m 44,0 V 142 h 9 9 v 8.5 8.5 h -9 -9 z m 45,0 V 142 h 9.5 9.5 v 8.5 8.5 H 164.5 155 Z M 56,56 V 34 H 96.5 137 V 56 78 H 96.5 56 Z"
       style="fill:#4d9905" />
  </g>
</svg>
