/* XPM */
static const char *icon_xpm[] = {
/* columns rows colors chars-per-pixel */
"48 48 225 2",
"   c black",
".  c #040404",
"X  c #060606",
"o  c gray3",
"O  c #101010",
"+  c #111111",
"@  c #181818",
"#  c gray10",
"$  c #1B1B1B",
"%  c #1D1D1D",
"&  c #1D3A21",
"*  c #202020",
"=  c gray14",
"-  c #252525",
";  c #272727",
":  c #2D2D2D",
">  c #343434",
",  c gray22",
"<  c gray23",
"1  c gray24",
"2  c #3F3F3F",
"3  c #25492A",
"4  c #3A5742",
"5  c #444444",
"6  c #464646",
"7  c gray29",
"8  c #515151",
"9  c #535353",
"0  c gray33",
"q  c gray34",
"w  c #5A5A5A",
"e  c #5C5F7A",
"r  c #4A6E53",
"t  c #516B55",
"y  c #606060",
"u  c gray39",
"i  c #646464",
"p  c #656565",
"a  c DimGray",
"s  c gray42",
"d  c #6C6C6C",
"f  c gray43",
"g  c #677F6B",
"h  c gray44",
"j  c #717171",
"k  c #727272",
"l  c #747474",
"z  c #7E7E7E",
"x  c gray50",
"c  c #6A5E89",
"v  c #6F6590",
"b  c #756B92",
"n  c #66876C",
"m  c #7A8D7D",
"M  c #798293",
"N  c #7F8698",
"B  c #868686",
"V  c gray53",
"C  c #888888",
"Z  c #898989",
"A  c gray54",
"S  c #8B8B8B",
"D  c gray55",
"F  c #8D8D8D",
"G  c #8E8E8E",
"H  c #84988A",
"J  c #909090",
"K  c gray57",
"L  c #929292",
"P  c gray58",
"I  c #959595",
"U  c #979797",
"Y  c #989898",
"T  c gray60",
"R  c #9A9A9A",
"E  c #9B9B9B",
"W  c #9D9D9D",
"Q  c gray62",
"!  c #82A087",
"~  c #93A997",
"^  c #9AB29E",
"/  c #9FB1A2",
"(  c #9EB2A5",
")  c #A0A0A0",
"_  c #A2A2A2",
"`  c #A5A5A5",
"'  c #A7A7A7",
"]  c gray66",
"[  c #A9A9A9",
"{  c #AAAAAA",
"}  c #AEAEAE",
"|  c #AFAFAF",
" . c #A0B5A5",
".. c #A6B9AA",
"X. c #A7BFAE",
"o. c #ACBCB1",
"O. c #ADBEB1",
"+. c gray69",
"@. c #B1B1B1",
"#. c #B2B2B2",
"$. c gray70",
"%. c #B6B6B6",
"&. c #B9B9B9",
"*. c gray73",
"=. c gray74",
"-. c gray",
";. c gray75",
":. c #B4AFC6",
">. c #B5B0C8",
",. c #AEC5B4",
"<. c #B2C2B6",
"1. c #B3C4B9",
"2. c #BACEBF",
"3. c #BDCEC1",
"4. c #C4BED2",
"5. c #C0C0C0",
"6. c #C1C1C1",
"7. c gray76",
"8. c #C3C3C3",
"9. c gray77",
"0. c #C5C5C5",
"q. c #C6C6C6",
"w. c gray78",
"e. c #C1CEC4",
"r. c gray79",
"t. c #CACACA",
"y. c #CBCBCB",
"u. c gray80",
"i. c #CDCDCD",
"p. c #CECECE",
"a. c gray81",
"s. c #C7C1D5",
"d. c #CFCDD7",
"f. c #CEC9D8",
"g. c #C0D1C4",
"h. c #C0D2C6",
"j. c #C3D1C6",
"k. c #C9D4CA",
"l. c #CADACE",
"z. c #CED9D2",
"x. c #D0D0D0",
"c. c gray82",
"v. c #D2D2D2",
"b. c LightGray",
"n. c gray83",
"m. c #D5D5D5",
"M. c gray84",
"N. c #D7D7D7",
"B. c #D2D0DE",
"V. c #D1DDD4",
"C. c #D8D8D8",
"Z. c gray85",
"A. c #DADADA",
"S. c gray86",
"D. c gainsboro",
"F. c #DDDDDD",
"G. c gray87",
"H. c #DFDFDF",
"J. c #DBD8E4",
"K. c #DEDAE8",
"L. c #D6E0D8",
"P. c #D7E3D9",
"I. c #DAE2DC",
"U. c #DAE4DD",
"Y. c #DAE5DD",
"T. c #DDE0DD",
"R. c #E0DDE9",
"E. c gray88",
"W. c #E1E1E1",
"Q. c #E2E2E2",
"!. c gray89",
"~. c #E4E4E4",
"^. c gray90",
"/. c #E6E6E6",
"(. c #E7E7E7",
"). c #E3EBE5",
"_. c #E4EBE6",
"`. c gray91",
"'. c #E9E9E9",
"]. c gray92",
"[. c #EAEDEB",
"{. c #ECECEC",
"}. c gray93",
"|. c #EDECEF",
" X c #EEEEEE",
".X c #EFEFEF",
"XX c #EDF0EE",
"oX c #EDF2EE",
"OX c gray94",
"+X c #F1F1F1",
"@X c #F0F2F1",
"#X c #F0F3F2",
"$X c gray95",
"%X c #F3F3F3",
"&X c #F1F2F6",
"*X c #F2F6F3",
"=X c #F3F6F4",
"-X c #F3F7F5",
";X c #F4F4F4",
":X c gray96",
">X c #F4F6F5",
",X c #F5F7F5",
"<X c #F5F7F6",
"1X c #F6F6F6",
"2X c gray97",
"3X c #F3F3F9",
"4X c #F7F7FB",
"5X c #F4F8F5",
"6X c #F6F9F8",
"7X c #F8F8F8",
"8X c #F8F9F8",
"9X c #F9F9F9",
"0X c #F9FAF9",
"qX c #F9FBF9",
"wX c #FAFBFA",
"eX c #FBFCFB",
"rX c #FBFCFC",
"tX c gray99",
"yX c #FCFDFD",
"uX c #FDFDFD",
"iX c #FDFEFD",
"pX c #FEFEFE",
"aX c #FEFEFF",
"sX c gray100",
"dX c None",
/* pixels */
"dXdXdXdXdXdXdXdXdXdXdXdXdXdXdXdXdXdXdXdXdXdXdXdXdXdXdXdXdXdXdXdXdXdXdXdXdXdXdXdXdXdXdXdXdXdXdXdX",
"dXdXdXdXdXdXdXdXdXdXdXdXdXdXdXdXdXdXdXdXdXdXdXdXdXdXdXdXdXdXdXdXdXdXdXdXdXdXdXdXdXdXdXdXdXdXdXdX",
"dXdXdXdXdXdXdXdXdXdXdXdXdXdXdXdX                                      dXdXdXdXdXdXdXdXdXdXdXdXdX",
"dXdXdXdXdXdXdXdXdXdXdXdXdXdXdXdX  -.$X$X$X$X.X X X X].].].].^.^.0.d   dXdXdXdXdXdXdXdXdXdXdXdXdX",
"dXdXdXdXdXdXdXdXdXdXdXdXdXdXdXdX  $XC.C.C.C.N.N.b.b.b.y.y.y.y.0.W.x.  dXdXdXdXdXdXdXdXdXdXdXdXdX",
"dXdXdXdXdXdXdXdXdXdXdXdXdXdXdXdX  $XC.                          0XE.  dXdXdXdXdXdXdXdXdXdXdXdXdX",
"dXdXdXdXdXdXdXdXdXdXdXdXdXdXdXdX  $XC.  eXeXeXeX-XoX_.I.z.e.<.  0XE.  dXdXdXdXdXdXdXdXdXdXdXdXdX",
"dXdXdXdXdXdXdXdXdXdXdXdXdXdXdXdX  $XN.  eXeXeXeX6X0X X.XV.j.1.  0XF.  dXdXdXdXdXdXdXdXdXdXdXdXdX",
"dXdXdXdXdXdXdXdXdXdXdXdXdXdXdXdX  $XN.  3XrXeX4X<X0XK.s.N c O.  0XS.  dXdXdXdXdXdXdXdXdXdXdXdXdX",
"dXdXdXdXdXdXdXdXdXdXdXdXdXdXdXdX   XN.  eXeXeXeX6X0XK.4.M v O.  0XF.  dXdXdXdXdXdXdXdXdXdXdXdXdX",
"dXdXdXdXdXdXdXdXdXdXdXdXdXdXdXdX   Xn.  eXeXeXeX*X-XJ.:.e b ..  0XC.  dXdXdXdXdXdXdXdXdXdXdXdXdX",
"dXdXdXdXdXdXdXdXdXdXdXdXdXdXdXdX   XN.  %X6X<X<X_.OXB.f.:.d./   0XC.  dXdXdXdXdXdXdXdXdXdXdXdXdX",
"dXdXdXdXdXdXdXdXdXdXdXdXdXdXdXdX   Xb.  P.Y.Y.V.l.[.2Xk.T./ ~   0XN.  dXdXdXdXdXdXdXdXdXdXdXdXdX",
"dXdXdXdXdXdXdXdXdXdXdXdXdXdXdXdX   Xb.  3.h.h.2.( H m g t 4 &   0.#.  dXdXdXdXdXdXdXdXdXdXdXdXdX",
"dXdXdXdXdXdXdXdXdXdXdXdXdXdXdXdX   Xy.                                                  dXdXdXdX",
"dXdXdXdXdXdXdXdXdXdXdXdXdXdXdXdXo ].].0X0X0X0X0XN.k -.%X$X$X$XOX X X X].].].].^.^.!.G   dXdXdXdX",
"dX                      dXdXdXdX  *.].].^.^.^.W.$.  $XC.C.C.C.N.N.v.b.b.y.y.y.y.0.!.W.  dXdXdXdX",
"dX  0X7X2X7X<X0X7X<X X  dXdXdXdX    a U U R R S z   $XC.                          wXW.  dXdXdXdX",
"dX  2X^.^.^.^.W.!.W.#.  dXdXdXdXdX                  $XC.  eXeXeXqX-XOX_.U.z.e.<.  0XH.  dXdXdXdX",
"dX  0X^., G G G S W.{   dXdXdXdXdXdXdXdXdXdX  R l   $XN.  eXeXeXyX6X6XOX.XV.h.1.  0XF.  dXdXdXdX",
"dX  <X~.W.*.w *.F.F.{   dXdXdX                      .XN.  2X4XeX3X6X0XK.4.N c O.  0XF.  dXdXdXdX",
"dX  2XW.W.W.W.F.F.F.'   dXdXdX  0X$X%X%X%X%X$X<X$X   XN.  eXeXeXeX<X6XK.4.M v O.  0XS.  dXdXdXdX",
"dX  2XF.S B B F.F.C.Q   dXdX    <X`.eXY F.F.F.F.F.   XN.  wXeXeXyX-X%XJ.>.e b ..  0XS.  dXdXdXdX",
"dX  2XF.S.F.C.b.#.C.Q   dX      <XN.l ) C.C.C.S.C.o  XN.  -X5X0X-X_.OXJ.f.:.d./   0XC.  dXdXdXdX",
"dX  <XS.C.C.C.+.7 C.Q           <Xb.b.N.N.b.b.N.N.   Xb.  P.Y.Y.P.l.].<Xk.F./ ~   0XN.  dXdXdXdX",
"dX  0XC.C.C.N.N.N.b.Q           -.' ' ' ' ' ' ' '    Xb.  3.h.h.2.,.X.^ ! n r 3   0XN.    dXdXdX",
"dX  W.z : > y 1 , - 0                                Xy.                          0XN.    dXdXdX",
"dX  W.2 1 q < < > $ k                   W.        p ].].0X0X0X0X0X0X0X0X0X0X0X0X0XN.N.    dXdXdX",
"dX  E.= * + $ @ ; % k                   W.          %.].`.^.^.^.W.W.W.F.F.F.C.C.N.N.0.  dXdXdXdX",
"dX  <Xb.x.a.y.u.y.y.J                   W.            x -.;.;.;.5.-.-.5.-.-.5.-.y.l     dXdXdXdX",
"dX  2Xy.7 u.6 y.5 0.J X               -.W.  dXdXdXdX                                  dXdXdXdXdX",
"dX  7Xy.f y.f w.d 0.G X a #.]. X.X X].eXW.  dXdXdXdXdXdXdXdXdX  R l l l l 0   dXdXdXdXdXdXdXdXdX",
"dX  2Xy.R w.R 0.R 8.G                 { W.  dXdX                                          dXdXdX",
"dX  <X0.R 0.U 5.U 5.S                   W.  dXdX  0X<X$X<X$X$X<X$X<X<X$X%X$X%X%X%X%X$X0.  dXdXdX",
"dX  <X9.R 5.U 5.J -.B               dX  W.        2X(.eXR F.F.F.F.F.F.F.F.F.F.F.F.F.F.#.      dX",
"     XL p S y V u V w                   5.5.' a   <XC.l Q C.C.C.C.C.C.} } } } } ] C.C.|         ",
"                                                  <XN.b.b.N.N.b.N.b.N.W. X$X$X<X$X!.N.{         ",
"                                      dX          ;.' ' ' ' ' ' ' ' ' ' ' { ' ' ' ' ' S         ",
"dX                                dXdXdX                                                        ",
"dXdX                            dXdXdXdXdX                                                      ",
"dXdXdXdXdXdXdXdXdXdXdXdXdXdXdXdXdXdXdXdXdXdX                                                dXdX",
"dXdXdXdXdXdXdXdXdXdXdXdXdXdXdXdXdXdXdXdXdXdXdXdXdX      dX            dX          dXdXdXdXdXdXdX",
"dXdXdXdXdXdXdXdXdXdXdXdXdXdXdXdXdXdXdXdXdXdXdXdXdXdXdXdXdXdXdXdXdXdXdXdXdXdXdXdXdXdXdXdXdXdXdXdX",
"dXdXdXdXdXdXdXdXdXdXdXdXdXdXdXdXdXdXdXdXdXdXdXdXdXdXdXdXdXdXdXdXdXdXdXdXdXdXdXdXdXdXdXdXdXdXdXdX",
"dXdXdXdXdXdXdXdXdXdXdXdXdXdXdXdXdXdXdXdXdXdXdXdXdXdXdXdXdXdXdXdXdXdXdXdXdXdXdXdXdXdXdXdXdXdXdXdX",
"dXdXdXdXdXdXdXdXdXdXdXdXdXdXdXdXdXdXdXdXdXdXdXdXdXdXdXdXdXdXdXdXdXdXdXdXdXdXdXdXdXdXdXdXdXdXdXdX",
"dXdXdXdXdXdXdXdXdXdXdXdXdXdXdXdXdXdXdXdXdXdXdXdXdXdXdXdXdXdXdXdXdXdXdXdXdXdXdXdXdXdXdXdXdXdXdXdX",
"dXdXdXdXdXdXdXdXdXdXdXdXdXdXdXdXdXdXdXdXdXdXdXdXdXdXdXdXdXdXdXdXdXdXdXdXdXdXdXdXdXdXdXdXdXdXdXdX"
};
