/* XPM */
static const char *icon_xpm[] = {
"48 48 3 1",
" 	c None",
".	c #BABDB6",
"+	c #4E9A06",
"                                                ",
"                                                ",
"                                                ",
"                                                ",
"                                                ",
"                                                ",
"                                                ",
"                                                ",
"            ......................              ",
"            ......................              ",
"            ..++++++++++++++++++..              ",
"            ..++++++++++++++++++..              ",
"            ..++++++++++++++++++..              ",
"            ..++++++++++++++++++..              ",
"            ..++++++++++++++++++..              ",
"            ..++++++++++++++++++..              ",
"            ..++++++++++++++++++..              ",
"            ..++++++++++++++++++..              ",
"            ..++++++++++++++++++..              ",
"            ..++++++++++++++++++..              ",
"            ......................              ",
"            ......................              ",
"                      ..                        ",
"                      ..                        ",
"                      ..                        ",
"                      ..                        ",
"        ..............................          ",
"        ..............................          ",
"        ..        ..      ..        ..          ",
"        ..        ..      ..        ..          ",
"        ..        ..      ..        ..          ",
"        ..        ..      ..        ..          ",
"    ........  ........  ........  ........      ",
"    ........  ........  ........  ........      ",
"    ..++++..  ..++++..  ..++++..  ..++++..      ",
"    ..++++..  ..++++..  ..++++..  ..++++..      ",
"    ..++++..  ..++++..  ..++++..  ..++++..      ",
"    ..++++..  ..++++..  ..++++..  ..++++..      ",
"    ........  ........  ........  ........      ",
"    ........  ........  ........  ........      ",
"                                                ",
"                                                ",
"                                                ",
"                                                ",
"                                                ",
"                                                ",
"                                                ",
"                                                "};
