<?xml version="1.0" encoding="UTF-8" standalone="no"?>
<!-- Created with Inkscape (http://www.inkscape.org/) -->

<svg
   width="128.00002"
   height="127.99999"
   viewBox="0 0 33.866671 33.866665"
   version="1.1"
   id="svg1"
   inkscape:version="1.2.2 (b0a8486541, 2022-12-01)"
   sodipodi:docname="net.christianbeier.MultiVNC.svg"
   xmlns:inkscape="http://www.inkscape.org/namespaces/inkscape"
   xmlns:sodipodi="http://sodipodi.sourceforge.net/DTD/sodipodi-0.dtd"
   xmlns="http://www.w3.org/2000/svg"
   xmlns:svg="http://www.w3.org/2000/svg">
  <sodipodi:namedview
     id="namedview1"
     pagecolor="#ffffff"
     bordercolor="currentColor"
     borderopacity="0.25"
     inkscape:showpageshadow="2"
     inkscape:pageopacity="0.0"
     inkscape:pagecheckerboard="0"
     inkscape:deskcolor="#d1d1d1"
     inkscape:document-units="px"
     inkscape:zoom="4.4618949"
     inkscape:cx="60.624466"
     inkscape:cy="77.881708"
     inkscape:window-width="1920"
     inkscape:window-height="1011"
     inkscape:window-x="0"
     inkscape:window-y="0"
     inkscape:window-maximized="1"
     inkscape:current-layer="layer1"
     showgrid="false" />
  <defs
     id="defs1" />
  <g
     inkscape:label="Layer 1"
     inkscape:groupmode="layer"
     id="layer1"
     transform="translate(-32.279167,-138.64166)">
    <circle
       cx="49.212509"
       cy="155.575"
       r="15.743801"
       id="circle2892"
       style="display:none;opacity:0.2;fill:none;fill-opacity:1;stroke:currentColor;stroke-width:0.261937;stroke-linecap:butt;stroke-linejoin:miter;stroke-miterlimit:4;stroke-dasharray:none;stroke-dashoffset:0;stroke-opacity:1;marker:none;marker-start:none;marker-mid:none;marker-end:none;paint-order:normal;enable-background:new" />
    <rect
       ry="2.096508"
       rx="2.096508"
       y="141.94769"
       x="35.585205"
       height="27.254602"
       width="27.254602"
       id="rect2896"
       style="display:none;opacity:0.2;fill:none;fill-opacity:1;stroke:currentColor;stroke-width:0.261937;stroke-linecap:butt;stroke-linejoin:miter;stroke-miterlimit:4;stroke-dasharray:none;stroke-dashoffset:0;stroke-opacity:1;marker:none;marker-start:none;marker-mid:none;marker-end:none;paint-order:normal;enable-background:new" />
    <g
       id="g3695"
       transform="matrix(0.15996307,0,0,0.15996307,33.696091,140.13856)"
       style="display:inline">
      <path
         id="path3686"
         d="M 12,150.5 V 132 H 20.5 29 V 118.5 105 H 61 93 V 96.5 88 H 70.5 48 V 56 24 H 97.5 147 V 56 88 H 124.5 102 v 8.5 8.5 h 31 31 v 13.5 13.5 h 9 9 V 150.5 169 H 164.5 147 V 150.5 132 h 4 4 V 123.5 115 H 137.5 120 v 8.5 8.5 h 8.5 8.5 V 150.5 169 H 119.5 102 V 150.5 132 h 4 4 V 123.5 115 H 96.5 83 v 8.5 8.5 h 5 5 V 150.5 169 H 74.5 56 V 150.5 132 H 65.5 75 V 123.5 115 H 57 39 v 8.5 8.5 H 43.5 48 V 150.5 169 H 30 12 Z"
         style="fill:#b9bcb5" />
      <path
         id="path3684"
         d="M 21,150.5 V 142 h 9 9 v 8.5 8.5 h -9 -9 z m 45,0 V 142 h 8.5 8.5 v 8.5 8.5 H 74.5 66 Z m 44,0 V 142 h 9 9 v 8.5 8.5 h -9 -9 z m 45,0 V 142 h 9.5 9.5 v 8.5 8.5 H 164.5 155 Z M 56,56 V 34 H 96.5 137 V 56 78 H 96.5 56 Z"
         style="fill:#4d9905" />
    </g>
  </g>
</svg>
