#define vnccursor_width 16
#define vnccursor_height 16
static unsigned char vnccursor_bits[] = {
   0x00, 0x00, 0x00, 0x00, 0x00, 0x00, 0x00, 0x00, 0x00, 0x00, 0x00, 0x00,
   0x80, 0x03, 0x40, 0x04, 0x40, 0x04, 0x40, 0x04, 0x80, 0x03, 0x00, 0x00,
   0x00, 0x00, 0x00, 0x00, 0x00, 0x00, 0x00, 0x00 };
