#define vnccursor_mask_width 16
#define vnccursor_mask_height 16
static unsigned char vnccursor_mask_bits[] = {
   0xff, 0xff, 0xff, 0xff, 0xff, 0xff, 0xff, 0xff, 0xff, 0xff, 0xff, 0xff,
   0x7f, 0xfc, 0x3f, 0xf8, 0x3f, 0xf8, 0x3f, 0xf8, 0x7f, 0xfc, 0xff, 0xff,
   0xff, 0xff, 0xff, 0xff, 0xff, 0xff, 0xff, 0xff };
